<?xml version="1.0" encoding="UTF-8" standalone="no"?>
<!DOCTYPE svg PUBLIC "-//W3C//DTD SVG 1.1//EN" "http://www.w3.org/Graphics/SVG/1.1/DTD/svg11.dtd">
<svg width="100%" height="100%" viewBox="0 0 51 34" version="1.1" xmlns="http://www.w3.org/2000/svg" xmlns:xlink="http://www.w3.org/1999/xlink" xml:space="preserve" xmlns:serif="http://www.serif.com/" style="fill-rule:evenodd;clip-rule:evenodd;stroke-linecap:round;stroke-linejoin:round;stroke-miterlimit:1.5;">
    <g id="clock" transform="matrix(1.66667,0,0,1.92308,-5.51685,-0.683089)">
        <path d="M18.046,3C18.046,2.739 17.801,2.527 17.5,2.527C13.057,2.527 9.454,5.649 9.454,9.5C9.454,13.348 13.059,16.473 17.5,16.473C21.943,16.473 25.546,13.351 25.546,9.5C25.546,9.239 25.301,9.027 25,9.027L18.046,9.027C18.046,9.027 18.046,3 18.046,3Z" style="fill:rgb(235,235,235);stroke:rgb(235,233,39);stroke-opacity:0.33;stroke-width:0.56px;"/>
    </g>
    <g transform="matrix(-0.278309,-0.112001,-0.373337,0.927696,38.1119,2.91199)">
        <path d="M25,6.075C25,6.034 24.888,6 24.75,6L24.25,6C24.112,6 24,6.034 24,6.075L24,16.925C24,16.966 24.112,17 24.25,17L24.75,17C24.888,17 25,16.966 25,16.925L25,6.075Z" style="fill:rgb(7,255,202);"/>
    </g>
    <g id="_3Oclock" serif:id="3Oclock" transform="matrix(-3.20348e-05,-1.00761,1.01772,-3.17165e-05,33.9244,41.2882)">
        <path d="M24.006,3.179L24.504,3.849L23.509,3.849L24.006,3.179Z" style="fill:rgb(235,235,235);stroke:rgb(235,235,235);stroke-opacity:0.18;stroke-width:0.99px;"/>
    </g>
    <g transform="matrix(-0.290676,-0.406826,-0.567955,0.405803,40.4101,19.7269)">
        <path d="M24,17.179C24,17.08 23.888,17 23.75,17L23.25,17C23.112,17 23,17.08 23,17.179L23,28.821C23,28.92 23.112,29 23.25,29L23.75,29C23.888,29 24,28.92 24,28.821L24,17.179Z" style="fill:rgb(28,255,0);"/>
    </g>
    <g id="_12Oclock" serif:id="12Oclock" transform="matrix(-1.01772,-0.000126279,0.000127547,-1.00761,49.384,6.88156)">
        <path d="M24.006,3.179L24.504,3.849L23.509,3.849L24.006,3.179Z" style="fill:rgb(7,255,202);stroke:rgb(16,255,10);stroke-opacity:0;stroke-width:0.99px;"/>
    </g>
    <g id="_9Oclock" serif:id="9Oclock" transform="matrix(0.000533678,1.00761,-1.01772,0.000528375,13.1638,-7.1911)">
        <path d="M24.006,3.179L24.504,3.849L23.509,3.849L24.006,3.179Z" style="fill:rgb(7,255,202);stroke:rgb(16,255,10);stroke-opacity:0;stroke-width:0.99px;"/>
    </g>
    <g id="_6Oclock" serif:id="6Oclock" transform="matrix(1.01772,-0.000212104,0.000214233,1.00761,0.520017,28.8265)">
        <path d="M24.006,3.179L24.504,3.849L23.509,3.849L24.006,3.179Z" style="fill:rgb(7,255,202);stroke:rgb(16,255,10);stroke-opacity:0;stroke-width:0.99px;"/>
    </g>
    <g id="center" transform="matrix(3,0,0,3,-55,-36)">
        <circle cx="24.5" cy="16.5" r="0.205" style="fill:rgb(7,255,202);fill-opacity:0.2;stroke:rgb(255,124,124);stroke-opacity:0.55;stroke-width:0.33px;"/>
    </g>
    <circle cx="24.5" cy="16.5" r="0.5" style="fill:rgb(28,255,0);"/>
</svg>
